<svg xmlns="http://www.w3.org/2000/svg" width="38" height="38" viewBox="0 0 38 38">
    <g id="Group_46" data-name="Group 46" transform="translate(-166 -47)">
        <g id="Ellipse_13" data-name="Ellipse 13" transform="translate(166 47)" fill="#fff" stroke="#e4e4e4" stroke-width="1">
            <circle cx="19" cy="19" r="19" stroke="none"/>
            <circle cx="19" cy="19" r="18.5" fill="none"/>
        </g>
        <g id="vuesax_linear_setting-2" data-name="vuesax/linear/setting-2" transform="translate(-127 -134)">
            <g id="setting-2">
                <path id="Vector" d="M6,3A3,3,0,1,1,3,0,3,3,0,0,1,6,3Z" transform="translate(309 197)" fill="none" stroke="#00324a" stroke-linecap="round" stroke-linejoin="round" stroke-width="1.5"/>
                <path id="Vector-2" data-name="Vector" d="M0,10.319V8.559a1.906,1.906,0,0,1,1.9-1.9c1.81,0,2.55-1.28,1.64-2.85a1.9,1.9,0,0,1,.7-2.59L5.97.229a1.669,1.669,0,0,1,2.28.6l.11.19c.9,1.57,2.38,1.57,3.29,0l.11-.19a1.669,1.669,0,0,1,2.28-.6l1.73.99a1.9,1.9,0,0,1,.7,2.59c-.91,1.57-.17,2.85,1.64,2.85a1.906,1.906,0,0,1,1.9,1.9v1.76a1.906,1.906,0,0,1-1.9,1.9c-1.81,0-2.55,1.28-1.64,2.85a1.9,1.9,0,0,1-.7,2.59l-1.73.99a1.669,1.669,0,0,1-2.28-.6l-.11-.19c-.9-1.57-2.38-1.57-3.29,0l-.11.19a1.669,1.669,0,0,1-2.28.6l-1.73-.99a1.9,1.9,0,0,1-.7-2.59c.91-1.57.17-2.85-1.64-2.85A1.906,1.906,0,0,1,0,10.319Z" transform="translate(302 190.561)" fill="none" stroke="#00324a" stroke-linecap="round" stroke-linejoin="round" stroke-width="1.5"/>
                <path id="Vector-3" data-name="Vector" d="M0,0H24V24H0Z" transform="translate(300 188)" fill="none" opacity="0"/>
            </g>
        </g>
    </g>
</svg>
